<svg width="22" height="22" viewBox="0 0 22 22" fill="none" xmlns="http://www.w3.org/2000/svg">
<g clip-path="url(#clip0_11_589)">
<path fill-rule="evenodd" clip-rule="evenodd" d="M17.8704 2.87191C18.0734 2.74964 18.3159 2.71074 18.547 2.76338C18.778 2.81602 18.9797 2.9561 19.1097 3.15424L20.0172 4.53841C20.1358 4.71931 20.1866 4.93631 20.1605 5.15103C20.1345 5.36575 20.0335 5.56436 19.8752 5.71174L19.8724 5.71541L19.8596 5.72732L19.8073 5.77591L19.6011 5.97299C18.4598 7.07995 17.3532 8.22206 16.2827 9.39766C14.2688 11.6123 11.8772 14.5108 10.2676 17.3232C9.81841 18.1078 8.72116 18.2765 8.07032 17.5991L2.12574 11.4226C2.04055 11.334 1.97403 11.2293 1.93014 11.1145C1.88625 10.9997 1.86588 10.8773 1.87024 10.7545C1.8746 10.6317 1.9036 10.511 1.95553 10.3997C2.00745 10.2883 2.08123 10.1885 2.17249 10.1062L3.96916 8.48557C4.12705 8.34322 4.3295 8.26018 4.54187 8.25064C4.75424 8.24111 4.96332 8.30569 5.13332 8.43332L8.16658 10.7076C12.9039 6.03532 15.5916 4.24232 17.8704 2.87191Z" fill="#181518"/>
</g>
<defs>
<clipPath id="clip0_11_589">
<rect width="22" height="22" fill="white"/>
</clipPath>
</defs>
</svg>
