<svg width="158" height="158" viewBox="0 0 158 158" fill="none" xmlns="http://www.w3.org/2000/svg">
<rect width="158" height="158" rx="50" fill="#8A2794"/>
<path d="M38.1294 48.5043L35.4278 63.0447C34.2633 69.3463 35.2106 75.8394 38.1294 81.5236H48.9932V48.5043H38.1294ZM52.74 48.5043V73.1144H53.3574C54.6773 73.1144 55.7418 72.0287 55.7418 70.7088V48.5043H52.74ZM59.51 48.5043V70.7088C59.51 74.0937 56.7637 76.84 53.3574 76.84H52.74V94.2332H55.9121V81.5236H60.0848C60.0848 81.5236 61.7027 78.2664 62.9801 75.6265C63.9807 73.6679 65.9818 72.4119 68.1959 72.4119H85.2697C88.4631 72.4119 91.0603 74.9879 91.0603 78.1812V97.6607H30.5249L32.7752 112.244H121.887L124.122 98.8103L119.63 48.5043H59.51ZM125.527 53.4859C124.484 53.5711 123.718 54.4865 123.824 55.5084L124.74 65.5994C124.825 66.6213 125.74 67.3877 126.762 67.3025C127.805 67.2174 128.55 66.2806 128.465 65.2588L127.571 55.189C127.486 54.231 126.677 53.4859 125.719 53.4859H125.527ZM107.048 53.5072C111.668 53.5072 115.394 57.2328 115.394 61.8525C115.394 66.4722 111.668 70.1978 107.048 70.1978C102.429 70.1978 98.7031 66.4722 98.7031 61.8525C98.7031 57.2328 102.429 53.5072 107.048 53.5072ZM107.048 57.2328C104.515 57.2328 102.429 59.3191 102.429 61.8525C102.429 64.4072 104.515 66.4722 107.048 66.4722C109.582 66.4722 111.668 64.4072 111.668 61.8525C111.668 59.3191 109.582 57.2328 107.048 57.2328ZM107.048 76.3717C112.711 76.3717 117.31 80.9914 117.31 86.633C117.31 92.2959 112.711 96.8943 107.048 96.8943C101.386 96.8943 96.7871 92.2959 96.7871 86.633C96.7871 80.9914 101.386 76.3717 107.048 76.3717ZM107.048 80.1185C103.451 80.1185 100.534 83.0351 100.534 86.633C100.534 90.2308 103.451 93.1261 107.048 93.1261C110.646 93.1261 113.542 90.2308 113.542 86.633C113.542 83.0351 110.646 80.1185 107.048 80.1185ZM44.7375 84.2699V88.0168H49.0145V84.2699H44.7375ZM32.7752 116.438V122.079H121.844V116.438H32.7752Z" fill="white"/>
</svg>
